<svg width="14" height="10" viewBox="0 0 14 10" fill="none" xmlns="http://www.w3.org/2000/svg">
<path d="M5.57615 9.27956C5.44489 9.27983 5.31486 9.25417 5.19353 9.20406C5.07221 9.15395 4.96197 9.08038 4.86915 8.98756L0.627152 4.74456C0.531579 4.65238 0.45532 4.54209 0.402827 4.42013C0.350334 4.29816 0.322656 4.16696 0.321409 4.03418C0.320163 3.9014 0.345372 3.76971 0.395566 3.64678C0.44576 3.52385 0.519933 3.41214 0.613759 3.31819C0.707584 3.22423 0.819182 3.1499 0.942042 3.09953C1.0649 3.04916 1.19656 3.02377 1.32934 3.02482C1.46212 3.02588 1.59336 3.05337 1.7154 3.1057C1.83744 3.15802 1.94784 3.23412 2.04015 3.32956L5.57515 6.86456L11.9402 0.501562C12.1277 0.313921 12.382 0.208453 12.6473 0.208359C12.9126 0.208265 13.167 0.313553 13.3547 0.501061C13.5423 0.68857 13.6478 0.942938 13.6479 1.20821C13.6479 1.47348 13.5427 1.72792 13.3552 1.91556L6.28315 8.98756C6.19033 9.08038 6.0801 9.15395 5.95877 9.20406C5.83744 9.25417 5.70742 9.27983 5.57615 9.27956Z" fill="#2FAB73"/>
</svg>
